<?xml version="1.0" standalone="no"?>
<!DOCTYPE svg PUBLIC "-//W3C//DTD SVG 20010904//EN"
 "http://www.w3.org/TR/2001/REC-SVG-20010904/DTD/svg10.dtd">
<svg version="1.0" xmlns="http://www.w3.org/2000/svg"
 width="559.000000pt" height="140.000000pt" viewBox="0 0 559.000000 140.000000"
 preserveAspectRatio="xMidYMid meet">
<metadata>
Created by potrace 1.13, written by Peter Selinger 2001-2015
</metadata>
<g transform="translate(0.000000,140.000000) scale(0.100000,-0.100000)"
fill="#000000" stroke="none">
<path d="M485 1023 c-28 -27 -37 -64 -34 -139 3 -70 3 -73 -33 -112 -51 -56
-61 -78 -59 -134 2 -88 43 -138 120 -146 45 -4 49 -7 55 -34 15 -75 -4 -118
-52 -118 -25 0 -29 15 -7 24 21 8 19 53 -3 65 -14 7 -25 6 -40 -5 -46 -32 -14
-94 48 -94 64 0 89 41 71 120 -9 41 -8 47 13 70 39 42 46 63 35 103 -12 45
-33 66 -70 74 -45 9 -48 44 -12 112 37 69 41 125 14 185 -11 25 -22 46 -25 46
-2 0 -12 -7 -21 -17z m-5 -308 c0 -13 -6 -28 -14 -32 -18 -11 -36 -47 -36 -74
0 -24 36 -69 54 -69 6 0 3 5 -6 11 -22 12 -24 62 -3 79 19 16 19 16 33 -48 16
-73 17 -72 -23 -72 -49 0 -83 25 -95 70 -12 46 -3 76 41 131 33 42 49 43 49 4z"/>
</g>
</svg>
